<?xml version="1.0" encoding="UTF-8" standalone="no"?>
<svg
   xmlns:dc="http://purl.org/dc/elements/1.1/"
   xmlns:cc="http://creativecommons.org/ns#"
   xmlns:rdf="http://www.w3.org/1999/02/22-rdf-syntax-ns#"
   xmlns:svg="http://www.w3.org/2000/svg"
   xmlns="http://www.w3.org/2000/svg"
   xmlns:sodipodi="http://sodipodi.sourceforge.net/DTD/sodipodi-0.dtd"
   xmlns:inkscape="http://www.inkscape.org/namespaces/inkscape"
   inkscape:version="1.0 (4035a4fb49, 2020-05-01)"
   sodipodi:docname="pawnimg.svg"
   width="13.325297mm"
   height="20.373383mm"
   viewBox="0 0 13.325297 20.373383"
   version="1.1"
   id="svg8">
  <sodipodi:namedview
     inkscape:current-layer="svg8"
     inkscape:window-maximized="1"
     inkscape:window-y="-9"
     inkscape:window-x="-9"
     inkscape:cy="82.420415"
     inkscape:cx="77.825646"
     inkscape:zoom="3.2870912"
     fit-margin-bottom="0"
     fit-margin-right="0"
     fit-margin-left="0"
     fit-margin-top="0"
     showgrid="false"
     id="namedview7"
     inkscape:window-height="1013"
     inkscape:window-width="1920"
     inkscape:pageshadow="2"
     inkscape:pageopacity="0"
     guidetolerance="10"
     gridtolerance="10"
     objecttolerance="10"
     borderopacity="1"
     bordercolor="#666666"
     pagecolor="#ffffff" />
  <defs
     id="defs2" />
  <metadata
     id="metadata5">
    <rdf:RDF>
      <cc:Work
         rdf:about="">
        <dc:format>image/svg+xml</dc:format>
        <dc:type
           rdf:resource="http://purl.org/dc/dcmitype/StillImage" />
        <dc:title></dc:title>
      </cc:Work>
    </rdf:RDF>
  </metadata>
  <g
     id="layer1"
     transform="matrix(0.41622577,0,0,0.41622577,-59.303065,-43.279675)">
    <path
       id="path835"
       style="fill:#ffffff;fill-opacity:1;stroke:none;stroke-width:1;stroke-linecap:round;stroke-linejoin:round;stroke-dashoffset:25.1338"
       d="m 158.46888,103.98125 a 12.964583,12.303124 0 0 0 -12.94805,12.30312 12.964583,12.303124 0 0 0 6.35,10.58127 v 13.09894 h -7.43572 c -1.08413,0 -1.95699,0.87286 -1.95699,1.95698 v 9.05062 c 0,1.08413 0.87286,1.95698 1.95699,1.95698 h 28.10061 c 1.08413,0 1.95699,-0.87285 1.95699,-1.95698 v -9.05062 c 0,-1.08412 -0.87286,-1.95698 -1.95699,-1.95698 H 165.1 v -13.09894 a 12.964583,12.303124 0 0 0 6.35,-10.58127 12.964583,12.303124 0 0 0 -12.96458,-12.30312 12.964583,12.303124 0 0 0 -0.0165,0 z" />
  </g>
</svg>
